<?xml version="1.0" encoding="UTF-8"?>
<svg id="_Слой_1" data-name="Слой_1" xmlns="http://www.w3.org/2000/svg" version="1.1" xmlns:xlink="http://www.w3.org/1999/xlink" viewBox="0 0 582.8 303.9">
  <!-- Generator: Adobe Illustrator 29.6.1, SVG Export Plug-In . SVG Version: 2.1.1 Build 9)  -->
  <defs>
    <linearGradient id="_Безымянный_градиент_5" data-name="Безымянный градиент 5" x1="8" y1="152.3" x2="577" y2="152.3" gradientUnits="userSpaceOnUse">
      <stop offset="0" stop-color="#c9ced6"/>
      <stop offset="1" stop-color="#c9ced6"/>
    </linearGradient>
  </defs>
  <rect x="-1122" y="-131" width="883" height="585" display="none"/>
  <g>
    <path d="M-675.5,123.5h-4.5c-3.3,12.8-8.3,24.9-14.7,36-4.8,8.3-10.4,16.1-16.7,23.2-4,4.5-8.2,8.8-12.8,12.8-7.1,6.3-14.9,11.9-23.2,16.7-11.1,6.5-23.2,11.4-36,14.7-11.5,3-23.6,4.5-36,4.5s-24.5-1.6-36-4.5c-12.8-3.3-24.9-8.3-36-14.7-8.3-4.8-16.1-10.4-23.2-16.7-4.5-4-8.8-8.2-12.8-12.8-6.3-7.1-11.9-14.9-16.7-23.2-6.5-11.1-11.4-23.2-14.7-36-3-11.5-4.5-23.6-4.5-36s1.6-24.5,4.5-36c3.3-12.8,8.3-24.9,14.7-36,4.8-8.3,10.4-16.1,16.7-23.2l11.2-12.8h77.3s-16.6,6.3-16.6,6.3c-20.3,7.7-32.8,18.6-36,21.5-2.9,2.6-5.6,5.3-8.2,8.2-9.4,10.4-16.7,22.6-21.5,36-4,11.2-6.2,23.4-6.3,36h0v.5c0,12.4,2.1,24.4,6,35.5,4.6,13.4,11.8,25.6,21,36,2.8,3.2,5.9,6.3,9.1,9.2,10.4,9.4,22.6,16.7,36,21.5,7,2.5,14.2,4.3,21.8,5.3,4.7.6,9.4,1,14.2,1,.2,0,.3,0,.5,0,5,0,9.9-.3,14.7-1,7.2-1,14.1-2.6,20.8-5,13.4-4.6,25.6-11.8,36-21,3.6-3.1,7-6.5,10.1-10.1,14-16,20.9-36,20.9-36,3-8.6,4.1-15.3,5-20.8,1.8-11.5,3.3-29.1,0-51.2h36" stroke="#000" stroke-miterlimit="10"/>
    <path d="M-678.5,51.5h4.5c3.3-12.8,8.3-24.9,14.7-36,4.8-8.3,10.4-16.1,16.7-23.2,4-4.5,8.2-8.8,12.8-12.8,7.1-6.3,14.9-11.9,23.2-16.7,11.1-6.5,23.2-11.4,36-14.7,11.5-3,23.6-4.5,36-4.5s24.5,1.6,36,4.5c12.8,3.3,24.9,8.3,36,14.7,8.3,4.8,16.1,10.4,23.2,16.7,4.5,4,8.8,8.2,12.8,12.8,6.3,7.1,11.9,14.9,16.7,23.2,6.5,11.1,11.4,23.2,14.7,36,3,11.5,4.5,23.6,4.5,36s-1.6,24.5-4.5,36c-3.3,12.8-8.3,24.9-14.7,36-4.8,8.3-10.4,16.1-16.7,23.2l-11.2,12.8h-77.3s16.6-6.3,16.6-6.3c20.3-7.7,32.8-18.6,36-21.5,2.9-2.6,5.6-5.3,8.2-8.2,9.4-10.4,16.7-22.6,21.5-36,4-11.2,6.2-23.4,6.3-36h0v-.5c0-12.4-2.1-24.4-6-35.5-4.6-13.4-11.8-25.6-21-36-2.8-3.2-5.9-6.3-9.1-9.2-10.4-9.4-22.6-16.7-36-21.5-7-2.5-14.2-4.3-21.8-5.3-4.7-.6-9.4-1-14.2-1-.2,0-.3,0-.5,0-5,0-9.9.3-14.7,1-7.2,1-14.1,2.6-20.8,5-13.4,4.6-25.6,11.8-36,21-3.6,3.1-7,6.5-10.1,10.1-14,16-20.9,36-20.9,36-3,8.6-4.1,15.3-5,20.8-1.8,11.5-3.3,29.1,0,51.2h-36" stroke="#000" stroke-miterlimit="10"/>
  </g>
  <text transform="translate(-963.1 346.6)" font-family="ManiaExtendedC, ManiaExtendedC" font-size="100.9" letter-spacing=".2em"><tspan x="0" y="0">SIVVEN</tspan></text>
  <path d="M283,114.8h-27.4c-1.7,0-2.9,1.7-2.4,3.3,3.4,10,5.2,20.7,5.2,31.8,0,55.5-45.5,100.4-101.4,99.6-55.3-.8-95.3-49.2-98.6-98.2-2.7-40.5,19.8-80.1,57.5-101.5-17.5.1-35,.3-52.5.4-7.2,1.6-19.5,5.5-30,15.8-11.3,11.1-14.4,24.1-19.5,41.3-3.8,12.9-5.9,26.6-6,40.7-.7,81.9,65.6,149.6,147.7,150.8,69.9,1,129-45.6,146.8-109.4h-.6s27.4,0,27.4,0c1.7,0,2.9-1.7,2.4-3.3-3.4-10-5.2-20.7-5.2-31.8,0-55.5,45.5-100.4,101.4-99.6,55.3.8,95.3,49.2,98.6,98.2,2.7,40.5-19.8,80.1-57.5,101.5,17.5-.1,35-.3,52.5-.4,7.2-1.6,19.5-5.5,30-15.8,11.3-11.1,14.4-24.1,19.5-41.3,3.8-12.9,5.9-26.6,6-40.7.7-81.9-65.6-149.6-147.7-150.8-69.9-1-129,45.6-146.8,109.4" fill="url(#_Безымянный_градиент_5)"/>
</svg>